<mxfile host="app.diagrams.net" modified="2023-04-18T15:21:18.486Z" agent="Mozilla/5.0 (Windows NT 10.0; Win64; x64) AppleWebKit/537.36 (KHTML, like Gecko) Chrome/112.0.0.0 Safari/537.36" etag="d425sMwvcSpfZY8eFRyM" version="21.1.8" type="github">
  <diagram name="Страница 1" id="GCnagqD8y2shYohh5CNH">
    <mxGraphModel dx="1332" dy="725" grid="1" gridSize="10" guides="1" tooltips="1" connect="1" arrows="1" fold="1" page="1" pageScale="1" pageWidth="827" pageHeight="1169" math="0" shadow="0">
      <root>
        <mxCell id="0" />
        <mxCell id="1" parent="0" />
        <mxCell id="poupnZTpPkuUxan0Zx-w-1" value="&#xa;&#xa;&#xa;&#xa;&#xa;&#xa;&#xa;&#xa;&#xa;&#xa;&#xa;&#xa;&#xa;&#xa;&#xa;&#xa;&#xa;&#xa;&#xa;&#xa;&#xa;&#xa;&#xa;&#xa;&#xa;&#xa;&#xa;&#xa;&#xa;" style="swimlane;startSize=0;" vertex="1" parent="1">
          <mxGeometry x="160" y="40" width="240" height="560" as="geometry" />
        </mxCell>
        <mxCell id="poupnZTpPkuUxan0Zx-w-33" value="Поиск кандидатов" style="ellipse;whiteSpace=wrap;html=1;" vertex="1" parent="poupnZTpPkuUxan0Zx-w-1">
          <mxGeometry x="40" y="120" width="120" height="80" as="geometry" />
        </mxCell>
        <mxCell id="poupnZTpPkuUxan0Zx-w-34" value="Поиск вакансий" style="ellipse;whiteSpace=wrap;html=1;" vertex="1" parent="poupnZTpPkuUxan0Zx-w-1">
          <mxGeometry x="40" y="360" width="120" height="80" as="geometry" />
        </mxCell>
        <mxCell id="poupnZTpPkuUxan0Zx-w-78" value="Найти соответствия" style="ellipse;whiteSpace=wrap;html=1;" vertex="1" parent="poupnZTpPkuUxan0Zx-w-1">
          <mxGeometry x="100" y="240" width="120" height="80" as="geometry" />
        </mxCell>
        <mxCell id="poupnZTpPkuUxan0Zx-w-79" value="Заполнить&lt;br&gt;вакансию" style="ellipse;whiteSpace=wrap;html=1;" vertex="1" parent="poupnZTpPkuUxan0Zx-w-1">
          <mxGeometry x="80" y="40" width="120" height="40" as="geometry" />
        </mxCell>
        <mxCell id="poupnZTpPkuUxan0Zx-w-80" value="Загрузить&lt;br&gt;резюме" style="ellipse;whiteSpace=wrap;html=1;" vertex="1" parent="poupnZTpPkuUxan0Zx-w-1">
          <mxGeometry x="80" y="480" width="120" height="40" as="geometry" />
        </mxCell>
        <mxCell id="poupnZTpPkuUxan0Zx-w-95" value="" style="edgeStyle=none;html=1;endArrow=none;verticalAlign=bottom;rounded=0;exitX=0.5;exitY=0.5;exitDx=0;exitDy=0;exitPerimeter=0;entryX=0;entryY=0.5;entryDx=0;entryDy=0;" edge="1" parent="poupnZTpPkuUxan0Zx-w-1" source="poupnZTpPkuUxan0Zx-w-62" target="poupnZTpPkuUxan0Zx-w-33">
          <mxGeometry width="160" relative="1" as="geometry">
            <mxPoint x="-40" y="170" as="sourcePoint" />
            <mxPoint x="120" y="170" as="targetPoint" />
          </mxGeometry>
        </mxCell>
        <mxCell id="poupnZTpPkuUxan0Zx-w-96" value="" style="edgeStyle=none;html=1;endArrow=none;verticalAlign=bottom;rounded=0;exitX=0.5;exitY=0.5;exitDx=0;exitDy=0;exitPerimeter=0;entryX=0;entryY=0.5;entryDx=0;entryDy=0;" edge="1" parent="poupnZTpPkuUxan0Zx-w-1" source="poupnZTpPkuUxan0Zx-w-30" target="poupnZTpPkuUxan0Zx-w-34">
          <mxGeometry width="160" relative="1" as="geometry">
            <mxPoint x="-40" y="410" as="sourcePoint" />
            <mxPoint x="60" y="410" as="targetPoint" />
          </mxGeometry>
        </mxCell>
        <mxCell id="poupnZTpPkuUxan0Zx-w-98" value="&amp;lt;&amp;lt;extend&amp;gt;&amp;gt;" style="edgeStyle=none;html=1;startArrow=open;endArrow=none;startSize=12;verticalAlign=bottom;dashed=1;labelBackgroundColor=none;rounded=0;exitX=0.5;exitY=1;exitDx=0;exitDy=0;entryX=0;entryY=0;entryDx=0;entryDy=0;" edge="1" parent="poupnZTpPkuUxan0Zx-w-1" source="poupnZTpPkuUxan0Zx-w-33" target="poupnZTpPkuUxan0Zx-w-78">
          <mxGeometry x="0.3868" y="-13" width="160" relative="1" as="geometry">
            <mxPoint x="230" y="220" as="sourcePoint" />
            <mxPoint x="390" y="220" as="targetPoint" />
            <mxPoint as="offset" />
          </mxGeometry>
        </mxCell>
        <mxCell id="poupnZTpPkuUxan0Zx-w-97" value="&amp;lt;&amp;lt;extend&amp;gt;&amp;gt;" style="edgeStyle=none;html=1;startArrow=open;endArrow=none;startSize=12;verticalAlign=bottom;dashed=1;labelBackgroundColor=none;rounded=0;entryX=0;entryY=1;entryDx=0;entryDy=0;exitX=0.5;exitY=0;exitDx=0;exitDy=0;" edge="1" parent="poupnZTpPkuUxan0Zx-w-1" source="poupnZTpPkuUxan0Zx-w-34" target="poupnZTpPkuUxan0Zx-w-78">
          <mxGeometry x="-0.25" y="-7" width="160" relative="1" as="geometry">
            <mxPoint x="250" y="270" as="sourcePoint" />
            <mxPoint x="410" y="270" as="targetPoint" />
            <mxPoint as="offset" />
          </mxGeometry>
        </mxCell>
        <mxCell id="poupnZTpPkuUxan0Zx-w-99" value="&amp;lt;&amp;lt;include&amp;gt;&amp;gt;" style="edgeStyle=none;html=1;endArrow=open;verticalAlign=bottom;dashed=1;labelBackgroundColor=none;rounded=0;exitX=0.5;exitY=0;exitDx=0;exitDy=0;entryX=0.5;entryY=1;entryDx=0;entryDy=0;" edge="1" parent="poupnZTpPkuUxan0Zx-w-1" source="poupnZTpPkuUxan0Zx-w-33" target="poupnZTpPkuUxan0Zx-w-79">
          <mxGeometry x="-0.25" y="-7" width="160" relative="1" as="geometry">
            <mxPoint x="330" y="110" as="sourcePoint" />
            <mxPoint x="490" y="110" as="targetPoint" />
            <mxPoint as="offset" />
          </mxGeometry>
        </mxCell>
        <mxCell id="poupnZTpPkuUxan0Zx-w-100" value="&amp;lt;&amp;lt;include&amp;gt;&amp;gt;" style="edgeStyle=none;html=1;endArrow=open;verticalAlign=bottom;dashed=1;labelBackgroundColor=none;rounded=0;exitX=0.5;exitY=1;exitDx=0;exitDy=0;entryX=0.5;entryY=0;entryDx=0;entryDy=0;" edge="1" parent="poupnZTpPkuUxan0Zx-w-1" source="poupnZTpPkuUxan0Zx-w-34" target="poupnZTpPkuUxan0Zx-w-80">
          <mxGeometry x="0.25" y="-7" width="160" relative="1" as="geometry">
            <mxPoint x="340" y="200" as="sourcePoint" />
            <mxPoint x="500" y="200" as="targetPoint" />
            <mxPoint as="offset" />
          </mxGeometry>
        </mxCell>
        <mxCell id="poupnZTpPkuUxan0Zx-w-28" value="Актёры" parent="0" />
        <mxCell id="poupnZTpPkuUxan0Zx-w-30" value="Соискатель" style="shape=umlActor;verticalLabelPosition=bottom;verticalAlign=top;html=1;" vertex="1" parent="poupnZTpPkuUxan0Zx-w-28">
          <mxGeometry x="80" y="400" width="40" height="80" as="geometry" />
        </mxCell>
        <mxCell id="poupnZTpPkuUxan0Zx-w-62" value="Работодатель" style="shape=umlActor;verticalLabelPosition=bottom;verticalAlign=top;html=1;" vertex="1" parent="poupnZTpPkuUxan0Zx-w-28">
          <mxGeometry x="80" y="160" width="40" height="80" as="geometry" />
        </mxCell>
      </root>
    </mxGraphModel>
  </diagram>
</mxfile>
